<svg width="198" height="58" viewBox="0 0 198 58" fill="none" xmlns="http://www.w3.org/2000/svg">
<path d="M71.392 44V24.896H64.864V21.6H82.048V24.896H75.488V44H71.392ZM81.8237 44V28.128H85.4717L85.8558 31.104C86.4317 30.08 87.2104 29.2693 88.1917 28.672C89.1944 28.0533 90.3678 27.744 91.7118 27.744V32.064H90.5598C89.6638 32.064 88.8637 32.2027 88.1597 32.48C87.4557 32.7573 86.9011 33.2373 86.4957 33.92C86.1117 34.6027 85.9197 35.552 85.9197 36.768V44H81.8237ZM98.3832 44.384C97.0179 44.384 95.8979 44.1707 95.0232 43.744C94.1486 43.296 93.4979 42.7093 93.0712 41.984C92.6446 41.2587 92.4312 40.4587 92.4312 39.584C92.4312 38.112 93.0072 36.9173 94.1592 36C95.3112 35.0827 97.0392 34.624 99.3432 34.624H103.375V34.24C103.375 33.152 103.066 32.352 102.447 31.84C101.829 31.328 101.061 31.072 100.143 31.072C99.3112 31.072 98.5859 31.2747 97.9672 31.68C97.3486 32.064 96.9646 32.64 96.8152 33.408H92.8152C92.9219 32.256 93.3059 31.2533 93.9672 30.4C94.6499 29.5467 95.5246 28.896 96.5912 28.448C97.6579 27.9787 98.8526 27.744 100.175 27.744C102.437 27.744 104.218 28.3093 105.519 29.44C106.821 30.5707 107.471 32.1707 107.471 34.24V44H103.983L103.599 41.44C103.13 42.2933 102.469 42.9973 101.615 43.552C100.783 44.1067 99.7059 44.384 98.3832 44.384ZM99.3112 41.184C100.485 41.184 101.391 40.8 102.031 40.032C102.693 39.264 103.109 38.3147 103.279 37.184H99.7912C98.7032 37.184 97.9246 37.3867 97.4552 37.792C96.9859 38.176 96.7512 38.656 96.7512 39.232C96.7512 39.8507 96.9859 40.3307 97.4552 40.672C97.9246 41.0133 98.5432 41.184 99.3112 41.184ZM110.516 44V31.552H108.34V28.128H110.516V26.272C110.516 24.352 110.996 22.9867 111.956 22.176C112.937 21.3653 114.26 20.96 115.924 20.96H117.684V24.448H116.564C115.86 24.448 115.359 24.5867 115.06 24.864C114.761 25.1413 114.612 25.6107 114.612 26.272V28.128H118.036V31.552H114.612V44H110.516ZM120.416 44V31.552H118.24V28.128H120.416V26.272C120.416 24.352 120.896 22.9867 121.856 22.176C122.837 21.3653 124.16 20.96 125.824 20.96H127.584V24.448H126.464C125.76 24.448 125.259 24.5867 124.96 24.864C124.661 25.1413 124.512 25.6107 124.512 26.272V28.128H134.752V44H130.656V31.552H124.512V44H120.416ZM132.736 25.856C131.989 25.856 131.371 25.632 130.88 25.184C130.411 24.736 130.176 24.1707 130.176 23.488C130.176 22.8053 130.411 22.2507 130.88 21.824C131.371 21.376 131.989 21.152 132.736 21.152C133.483 21.152 134.091 21.376 134.56 21.824C135.051 22.2507 135.296 22.8053 135.296 23.488C135.296 24.1707 135.051 24.736 134.56 25.184C134.091 25.632 133.483 25.856 132.736 25.856ZM145.262 44.384C143.641 44.384 142.212 44.032 140.974 43.328C139.737 42.624 138.756 41.6427 138.03 40.384C137.326 39.1253 136.974 37.6853 136.974 36.064C136.974 34.4427 137.326 33.0027 138.03 31.744C138.756 30.4853 139.737 29.504 140.974 28.8C142.212 28.096 143.641 27.744 145.262 27.744C147.289 27.744 148.996 28.2773 150.382 29.344C151.769 30.3893 152.654 31.84 153.038 33.696H148.718C148.505 32.928 148.078 32.3307 147.438 31.904C146.82 31.456 146.084 31.232 145.23 31.232C144.1 31.232 143.14 31.6587 142.35 32.512C141.561 33.3653 141.166 34.5493 141.166 36.064C141.166 37.5787 141.561 38.7627 142.35 39.616C143.14 40.4693 144.1 40.896 145.23 40.896C146.084 40.896 146.82 40.6827 147.438 40.256C148.078 39.8293 148.505 39.2213 148.718 38.432H153.038C152.654 40.224 151.769 41.664 150.382 42.752C148.996 43.84 147.289 44.384 145.262 44.384ZM159.755 44L167.947 21.6H172.555L180.747 44H176.395L174.603 38.816H165.867L164.043 44H159.755ZM166.987 35.616H173.483L170.219 26.304L166.987 35.616ZM182.032 44V21.6H186.128V44H182.032Z" fill="white"/>
<path d="M49.8148 57.9997H7.20594C6.23074 57.9997 5.44006 57.2275 5.44006 56.2752V54.224C5.44006 52.3192 7.02114 50.7751 8.97167 50.7751H48.0489C49.9995 50.7751 51.5806 52.3192 51.5806 54.224V56.2752C51.5806 57.2277 50.7902 57.9997 49.8148 57.9997Z" fill="#B6AEB6"/>
<path d="M48.0489 50.7752H47.5754C47.8761 51.2826 48.0489 51.8712 48.0489 52.4998C48.0489 54.585 46.3181 56.2755 44.1828 56.2755H5.44019C5.44019 57.2278 6.23072 58 7.20606 58H49.815C50.7901 58 51.5808 57.2278 51.5808 56.2755V54.2243C51.5805 52.3193 49.9995 50.7752 48.0489 50.7752Z" fill="#A79BA7"/>
<path d="M48.0491 50.7752H8.9718V46.9995C8.9718 45.0947 10.5529 43.5506 12.5034 43.5506H44.5175C46.468 43.5506 48.0491 45.0947 48.0491 46.9995V50.7752Z" fill="#B6AEB6"/>
<path d="M44.5173 43.5506H44.0438C44.3445 44.0579 44.5173 44.6466 44.5173 45.2751C44.5173 47.3603 42.7865 49.0508 40.6512 49.0508H8.9718V50.7754H48.0491V46.9997C48.0489 45.0947 46.4679 43.5506 44.5173 43.5506Z" fill="#A79BA7"/>
<path d="M43.633 43.5506H13.3878V27.7815C13.3878 19.625 20.1584 13.0128 28.5104 13.0128C36.8624 13.0128 43.633 19.625 43.633 27.7815V43.5506Z" fill="#F04A58"/>
<path d="M37.2917 15.7569C39.0604 18.1745 40.1014 21.1348 40.1014 24.3327V31.2824C40.1014 36.1531 36.0583 40.1016 31.0708 40.1016H13.3878V43.5506H43.633V27.7816C43.633 22.8228 41.1304 18.4354 37.2917 15.7569Z" fill="#EE3540"/>
<path d="M28.5104 5.12335C28.0228 5.12335 27.6275 4.73748 27.6275 4.26115V0.862203C27.6275 0.386018 28.0226 0 28.5104 0C28.998 0 29.3932 0.385879 29.3932 0.862203V4.26115C29.3932 4.73748 28.998 5.12335 28.5104 5.12335Z" fill="#F04A58"/>
<path d="M40.158 8.89779C40.0082 8.89779 39.8563 8.86053 39.7173 8.78214C39.2951 8.54404 39.1503 8.01675 39.3941 7.60442L41.4672 4.09799C41.7108 3.68552 42.251 3.54424 42.6731 3.78233C43.0953 4.02042 43.2401 4.54772 42.9963 4.96005L40.9234 8.46648C40.7599 8.74322 40.463 8.89779 40.158 8.89779Z" fill="#F04A58"/>
<path d="M49.2023 16.9789C48.8972 16.9789 48.6004 16.8244 48.4369 16.5476C48.1931 16.1353 48.3379 15.608 48.7601 15.3699L51.7965 13.6578C52.2185 13.4199 52.7587 13.561 53.0024 13.9735C53.2462 14.3858 53.1014 14.9131 52.6792 15.1512L49.6428 16.8633C49.504 16.9417 49.3521 16.9789 49.2023 16.9789Z" fill="#F04A58"/>
<path d="M55.8471 28.7052H52.3665C51.8789 28.7052 51.4836 28.3193 51.4836 27.843C51.4836 27.3667 51.8788 26.9808 52.3665 26.9808H55.8471C56.3347 26.9808 56.7299 27.3667 56.7299 27.843C56.7299 28.3193 56.3347 28.7052 55.8471 28.7052Z" fill="#F04A58"/>
<path d="M4.36341 28.4211H0.882866C0.395269 28.4211 0 28.0352 0 27.5589C0 27.0827 0.395127 26.6967 0.882866 26.6967H4.36341C4.85101 26.6967 5.24628 27.0826 5.24628 27.5589C5.24628 28.0352 4.85115 28.4211 4.36341 28.4211Z" fill="#F04A58"/>
<path d="M7.67302 16.733C7.52325 16.733 7.3715 16.6957 7.23237 16.6173L4.19602 14.9054C3.7738 14.6674 3.629 14.14 3.8728 13.7276C4.11645 13.3152 4.65638 13.1739 5.07874 13.412L8.11509 15.1239C8.53731 15.3619 8.68211 15.8893 8.43831 16.3017C8.27507 16.5783 7.97823 16.733 7.67302 16.733Z" fill="#F04A58"/>
<path d="M16.5878 8.3565C16.2828 8.3565 15.9861 8.20193 15.8224 7.9252L13.9853 4.81808C13.7415 4.40575 13.8863 3.87845 14.3086 3.64036C14.7305 3.40241 15.2706 3.54354 15.5145 3.95602L17.3516 7.06313C17.5954 7.47547 17.4506 8.00276 17.0284 8.24085C16.8894 8.31925 16.7376 8.3565 16.5878 8.3565Z" fill="#F04A58"/>
<path d="M34.9238 31.9503L30.1584 30.4651V28.6256L34.9238 27.1403C35.3036 27.0219 35.6914 27.2987 35.6914 27.688V31.4027C35.6914 31.7919 35.3035 32.0685 34.9238 31.9503Z" fill="#F5F8F8"/>
<path d="M22.097 31.9503L26.8624 30.4651V28.6255L22.097 27.1403C21.7172 27.0219 21.3295 27.2987 21.3295 27.688V31.4027C21.3295 31.7919 21.7174 32.0685 22.097 31.9503Z" fill="#F5F8F8"/>
<path d="M27.6274 43.5506V31.671C27.6274 31.1948 28.0225 30.8088 28.5102 30.8088C28.998 30.8088 29.3931 31.1947 29.3931 31.671V43.5506H27.6274Z" fill="#F5F8F8"/>
<path d="M28.5104 31.671C29.7125 31.671 30.687 30.7193 30.687 29.5454C30.687 28.3714 29.7125 27.4197 28.5104 27.4197C27.3083 27.4197 26.3338 28.3714 26.3338 29.5454C26.3338 30.7193 27.3083 31.671 28.5104 31.671Z" fill="#E8EDF1"/>
</svg>
